<svg width="281" height="19" viewBox="0 0 281 19" fill="none" xmlns="http://www.w3.org/2000/svg">
<path d="M0.648438 18V0.820312H4.90234L7.45703 12.5391L9.98828 0.820312H14.2539V18H11.6172V4.47656L8.81641 18H6.07422L3.29688 4.47656V18H0.648438ZM29.793 18H26.6992L25.4688 14.0977H19.8438L18.6836 18H15.6602L21.1445 0.820312H24.1562L29.793 18ZM24.5547 11.2031L22.6211 4.82812L20.7109 11.2031H24.5547ZM31.3281 18V0.820312H34.0938L39.8594 12.293V0.820312H42.5078V18H39.6484L33.9766 6.79688V18H31.3281ZM45.5078 18V0.820312H48.3438V7.58203H53.9219V0.820312H56.7695V18H53.9219V10.4883H48.3438V18H45.5078ZM72.4023 18H69.3086L68.0781 14.0977H62.4531L61.293 18H58.2695L63.7539 0.820312H66.7656L72.4023 18ZM67.1641 11.2031L65.2305 4.82812L63.3203 11.2031H67.1641ZM75.625 18V3.72656H71.4414V0.820312H82.6328V3.72656H78.4609V18H75.625ZM87.6484 18V3.72656H83.4648V0.820312H94.6562V3.72656H90.4844V18H87.6484ZM107.746 18H104.652L103.422 14.0977H97.7969L96.6367 18H93.6133L99.0977 0.820312H102.109L107.746 18ZM102.508 11.2031L100.574 4.82812L98.6641 11.2031H102.508ZM109.281 18V0.820312H112.047L117.812 12.293V0.820312H120.461V18H117.602L111.93 6.79688V18H109.281ZM123.332 0.820312H126.027V3.1875C126.027 4.51562 125.871 5.50781 125.559 6.16406C125.176 6.96094 124.535 7.55859 123.637 7.95703L123.109 6.58594C123.641 6.36719 124.023 6.07031 124.258 5.69531C124.492 5.3125 124.617 4.78516 124.633 4.11328H123.332V0.820312ZM128.219 12.4102L130.996 12.082C131.309 14.2773 132.332 15.375 134.066 15.375C134.926 15.375 135.602 15.1523 136.094 14.707C136.586 14.2539 136.832 13.6953 136.832 13.0312C136.832 12.6406 136.746 12.3086 136.574 12.0352C136.402 11.7617 136.141 11.5391 135.789 11.3672C135.438 11.1875 134.586 10.8906 133.234 10.4766C132.023 10.1094 131.137 9.71094 130.574 9.28125C130.012 8.85156 129.562 8.28906 129.227 7.59375C128.898 6.89062 128.734 6.13672 128.734 5.33203C128.734 4.39453 128.945 3.55078 129.367 2.80078C129.797 2.05078 130.387 1.48438 131.137 1.10156C131.887 0.71875 132.812 0.527344 133.914 0.527344C135.57 0.527344 136.863 0.976562 137.793 1.875C138.723 2.77344 139.215 4.05859 139.27 5.73047L136.422 5.88281C136.297 4.96094 136.027 4.31641 135.613 3.94922C135.199 3.58203 134.609 3.39844 133.844 3.39844C133.078 3.39844 132.488 3.55859 132.074 3.87891C131.66 4.19922 131.453 4.59766 131.453 5.07422C131.453 5.54297 131.641 5.9375 132.016 6.25781C132.391 6.57812 133.254 6.92969 134.605 7.3125C136.035 7.72656 137.066 8.16406 137.699 8.625C138.34 9.07812 138.828 9.66797 139.164 10.3945C139.5 11.1133 139.668 11.9883 139.668 13.0195C139.668 14.5117 139.207 15.7656 138.285 16.7812C137.371 17.7969 135.938 18.3047 133.984 18.3047C130.531 18.3047 128.609 16.3398 128.219 12.4102ZM147.508 18V0.820312H151.762L154.316 12.5391L156.848 0.820312H161.113V18H158.477V4.47656L155.676 18H152.934L150.156 4.47656V18H147.508ZM163.387 9.51562C163.387 7.46875 163.688 5.78516 164.289 4.46484C164.898 3.13672 165.691 2.14844 166.668 1.5C167.645 0.851563 168.828 0.527344 170.219 0.527344C172.234 0.527344 173.875 1.29688 175.141 2.83594C176.414 4.375 177.051 6.56641 177.051 9.41016C177.051 12.2852 176.379 14.5312 175.035 16.1484C173.855 17.5781 172.254 18.293 170.23 18.293C168.191 18.293 166.582 17.5859 165.402 16.1719C164.059 14.5547 163.387 12.3359 163.387 9.51562ZM166.316 9.39844C166.316 11.375 166.691 12.8594 167.441 13.8516C168.191 14.8359 169.121 15.3281 170.23 15.3281C171.348 15.3281 172.273 14.8398 173.008 13.8633C173.742 12.8789 174.109 11.3711 174.109 9.33984C174.109 7.34766 173.75 5.875 173.031 4.92188C172.32 3.96875 171.387 3.49219 170.23 3.49219C169.074 3.49219 168.133 3.97266 167.406 4.93359C166.68 5.89453 166.316 7.38281 166.316 9.39844ZM178.562 12.4102L181.34 12.082C181.652 14.2773 182.676 15.375 184.41 15.375C185.27 15.375 185.945 15.1523 186.438 14.707C186.93 14.2539 187.176 13.6953 187.176 13.0312C187.176 12.6406 187.09 12.3086 186.918 12.0352C186.746 11.7617 186.484 11.5391 186.133 11.3672C185.781 11.1875 184.93 10.8906 183.578 10.4766C182.367 10.1094 181.48 9.71094 180.918 9.28125C180.355 8.85156 179.906 8.28906 179.57 7.59375C179.242 6.89062 179.078 6.13672 179.078 5.33203C179.078 4.39453 179.289 3.55078 179.711 2.80078C180.141 2.05078 180.73 1.48438 181.48 1.10156C182.23 0.71875 183.156 0.527344 184.258 0.527344C185.914 0.527344 187.207 0.976562 188.137 1.875C189.066 2.77344 189.559 4.05859 189.613 5.73047L186.766 5.88281C186.641 4.96094 186.371 4.31641 185.957 3.94922C185.543 3.58203 184.953 3.39844 184.188 3.39844C183.422 3.39844 182.832 3.55859 182.418 3.87891C182.004 4.19922 181.797 4.59766 181.797 5.07422C181.797 5.54297 181.984 5.9375 182.359 6.25781C182.734 6.57812 183.598 6.92969 184.949 7.3125C186.379 7.72656 187.41 8.16406 188.043 8.625C188.684 9.07812 189.172 9.66797 189.508 10.3945C189.844 11.1133 190.012 11.9883 190.012 13.0195C190.012 14.5117 189.551 15.7656 188.629 16.7812C187.715 17.7969 186.281 18.3047 184.328 18.3047C180.875 18.3047 178.953 16.3398 178.562 12.4102ZM195.578 18V3.72656H191.395V0.820312H202.586V3.72656H198.414V18H195.578ZM209.875 18V0.820312H214.129L216.684 12.5391L219.215 0.820312H223.48V18H220.844V4.47656L218.043 18H215.301L212.523 4.47656V18H209.875ZM226.328 18V0.820312H236.781V3.72656H229.164V7.53516H236.242V10.4297H229.164V15.1055H237.039V18H226.328ZM239.406 18V0.820312H243.66L246.215 12.5391L248.746 0.820312H253.012V18H250.375V4.47656L247.574 18H244.832L242.055 4.47656V18H239.406ZM255.859 18V0.820312H266.312V3.72656H258.695V7.53516H265.773V10.4297H258.695V15.1055H266.57V18H255.859ZM268.961 0.820312H274.152C275.465 0.820312 276.453 0.96875 277.117 1.26562C277.789 1.55469 278.406 2.04688 278.969 2.74219C279.531 3.4375 279.973 4.33984 280.293 5.44922C280.613 6.55859 280.773 7.9375 280.773 9.58594C280.773 11.0703 280.605 12.3633 280.27 13.4648C279.934 14.5586 279.508 15.4258 278.992 16.0664C278.477 16.707 277.852 17.1914 277.117 17.5195C276.391 17.8398 275.453 18 274.305 18H268.961V0.820312ZM271.797 3.72656V15.1055H273.93C274.844 15.1055 275.504 15.0195 275.91 14.8477C276.324 14.6758 276.66 14.418 276.918 14.0742C277.184 13.7227 277.402 13.1719 277.574 12.4219C277.746 11.6719 277.832 10.6836 277.832 9.45703C277.832 8.18359 277.742 7.17969 277.562 6.44531C277.391 5.71094 277.117 5.13281 276.742 4.71094C276.375 4.28906 275.926 4.01172 275.395 3.87891C274.996 3.77734 274.227 3.72656 273.086 3.72656H271.797Z" fill="black"/>
</svg>
